# AST/ASF file generated using VICON BodyLanguage
# -----------------------------------------------
:version 1.10
:name VICON
:units
  mass 1.0
  length 0.45
  angle deg
:documentation
   .ast/.asf automatically generated from VICON data using
   VICON BodyBuilder and BodyLanguage model FoxedUp or BRILLIANT.MOD
:root
   order TX TY TZ RX RY RZ
   axis XYZ
   position 0 0 0  
   orientation 0 0 0 
:bonedata
  begin
     id 1 
     name lhipjoint
     direction 0.54267 -0.795011 0.271047 
     length 2.39899 
     axis 0 0 0  XYZ
  end
  begin
     id 2 
     name lfemur
     direction 0.34202 -0.939693 0  
     length 7.49701  
     axis 0 0 20  XYZ
    dof rx ry rz
    limits (-160.0 20.0)
           (-70.0 70.0)
           (-60.0 70.0)
  end
  begin
     id 3 
     name ltibia
     direction 0.34202 -0.939693 0   
     length 8.1668   
     axis 0 0 20   XYZ
    dof rx
    limits (-10.0 170.0)
  end
  begin
     id 4 
     name lfoot
     direction 0.0736283 -0.202292 0.976554   
     length 2.13544   
     axis -90 7.62852e-016 20   XYZ
    dof rx rz
    limits (-45.0 90.0)
           (-70.0 20.0)
  end
  begin
     id 5 
     name ltoes
     direction 1.53557e-011 -4.22024e-011 1   
     length 1.07411   
     axis -90 7.62852e-016 20   XYZ
    dof rx
    limits (-90.0 20.0)
  end
  begin
     id 6 
     name rhipjoint
     direction -0.538061 -0.797813 0.272002   
     length 2.39057  
     axis 0 0 0  XYZ 
  end
  begin
     id 7 
     name rfemur
     direction -0.34202 -0.939693 0   
     length 7.50152   
     axis 0 0 -20   XYZ
    dof rx ry rz
    limits (-160.0 20.0)
           (-70.0 70.0)
           (-70.0 60.0)
  end
  begin
     id 8 
     name rtibia
     direction -0.34202 -0.939693 0   
     length 8.05793   
     axis 0 0 -20   XYZ
    dof rx
    limits (-10.0 170.0)
 end
 begin
     id 9 
     name rfoot
     direction -0.0765195 -0.210236 0.974652   
     length 2.28698  
     axis -90 -7.62852e-016 -20   XYZ
    dof rx rz
    limits (-45.0 90.0)
           (-20.0 70.0)
  end
  begin
     id 10 
     name rtoes
     direction -1.53542e-011 -4.21847e-011 1   
     length 1.14762   
     axis -90 -7.62852e-016 -20   XYZ
    dof rx
    limits (-90.0 20.0)
  end
  begin
     id 11 
     name lowerback
     direction -0.0217239 0.996592 -0.0795765   
     length 2.08176   
     axis 0 0 0   XYZ
    dof rx ry rz
    limits (-20.0 45.0)
           (-30.0 30.0)
           (-30.0 30.0)
  end
  begin
     id 12 
     name upperback
     direction -0.00563773 0.999651 -0.0258155   
     length 2.08898   
     axis 0 0 0   XYZ
    dof rx ry rz
    limits (-20.0 45.0)
           (-30.0 30.0)
           (-30.0 30.0)
  end
  begin
     id 13 
     name thorax
     direction 0.0032706 0.999923 0.0119599   
     length 2.0968   
     axis 0 0 0   XYZ
    dof rx ry rz
    limits (-20.0 45.0)
           (-30.0 30.0)
           (-30.0 30.0)
  end
  begin
     id 14 
     name lowerneck
     direction -0.0285886 0.99568 0.0883427   
     length 1.81272   
     axis 0 0 0   XYZ
    dof rx ry rz
    limits (-20.0 45.0)
           (-30.0 30.0)
           (-30.0 30.0)
  end
  begin
     id 15 
     name upperneck
     direction 0.0807535 0.97985 -0.18268   
     length 1.82518   
     axis 0 0 0   XYZ
    dof rx ry rz
    limits (-20.0 45.0)
           (-30.0 30.0)
           (-30.0 30.0)
  end
  begin
     id 16
     name head
     direction 0.0236605 0.997053 -0.0729767  
     length 1.84443  
     axis 0 0 0   XYZ
    dof rx ry rz
    limits (-20.0 45.0)
           (-30.0 30.0)
           (-30.0 30.0)
  end
  begin
     id 17 
     name lclavicle
     direction 0.918986 0.39378 -0.0200683  
     length 3.27822  
     axis 0 0 0   XYZ
    dof ry rz
    limits (-20.0 10.0)
           (0.0 20.0)
  end
  begin
     id 18 
     name lhumerus
     direction 1 -4.4897e-011 2.09544e-027   
     length 5.5568   
     axis 180 -30 -90   XYZ
    dof rx ry rz
    limits (-60.0 90.0)
           (-90.0 90.0)
           (-90.0 90.0)
  end
  begin
     id 19
     name lradius
     direction 1 -4.48957e-011 -1.27696e-026   
     length 3.63979   
     axis 180 -30 -90   XYZ
    dof rx
    limits (-10.0 170.0)
  end
  begin
     id 20
     name lwrist
     direction 1 -4.49001e-011 -1.49001e-026   
     length 1.8199   
     axis 9.0955e-015 90 90   XYZ
    dof ry
    limits (-180.0 0.0)
 end
  begin
     id 21 
     name lhand
     direction 1 -4.48709e-011 -2.9758e-026   
     length 0.569419   
     axis 1.90115e-014 90 90   XYZ
    dof rx rz
    limits (-90.0 90.0)
           (-45.0 45.0)
  end
  begin
     id 22 
     name lfingers
     direction 1 -4.49175e-011 -5.96505e-026   
     length 0.45908   
     axis 3.80223e-014 90 90   XYZ
    dof rx
    limits (0.0 90.0)
  end
  begin
     id 23
     name lthumb
     direction 0.707107 -6.34864e-011 0.707107   
     length 0.65915   
     axis -90 45 -3.84942e-014   XYZ
    dof rx rz
    limits (-45.0 45.0)
           (-45.0 45.0)
  end
  begin
     id 24 
     name rclavicle
     direction -0.911913 0.396426 -0.106115   
     length 3.46301  
     axis 0 0 0   XYZ 
    dof ry rz
    limits (-10.0 20.0)
           (-20.0 0.0)
  end
  begin
     id 25 
     name rhumerus
     direction -1 -4.48965e-011 7.78516e-028  
     length 5.34339   
     axis 180 30 90   XYZ
    dof rx ry rz
    limits (-90.0 60.0)
           (-90.0 90.0)
           (-90.0 90.0)
  end
  begin
     id 26 
     name rradius
     direction -1 -4.48948e-011 -5.79823e-027   
     length 3.65101   
     axis 180 30 90   XYZ
    dof rx
    limits (-10.0 170.0)
  end
  begin
     id 27 
     name rwrist
     direction -1 -4.48995e-011 -1.48996e-026   
     length 1.8255   
     axis 9.0955e-015 -90 -90   XYZ
    dof ry
    limits (-180.0 0.0)
  end
  begin
     id 28
     name rhand
     direction -1 -4.48957e-011 -2.97937e-026   
     length 0.694249   
     axis 1.90115e-014 -90 -90   XYZ
    dof rx rz
    limits (-90.0 90.0)
           (-45.0 45.0)
  end
  begin
     id 29
     name rfingers
     direction -1 -4.4898e-011 -5.95943e-026   
     length 0.559721   
     axis 3.80223e-014 -90 -90   XYZ
    dof rx
    limits (0.0 90.0)
  end
  begin
     id 30
     name rthumb
     direction -0.707107 -6.34969e-011 0.707107   
     length 0.803651   
     axis -90 -45 3.84942e-014   XYZ
    dof rx rz
    limits (-45.0 45.0)
           (-45.0 45.0)
  end
:hierarchy
  begin
    root lhipjoint rhipjoint lowerback
    lhipjoint lfemur
    lfemur ltibia
    ltibia lfoot
    lfoot ltoes
    rhipjoint rfemur
    rfemur rtibia
    rtibia rfoot
    rfoot rtoes
    lowerback upperback
    upperback thorax
    thorax lowerneck lclavicle rclavicle
    lowerneck upperneck
    upperneck head
    lclavicle lhumerus
    lhumerus lradius
    lradius lwrist
    lwrist lhand lthumb
    lhand lfingers
    rclavicle rhumerus
    rhumerus rradius
    rradius rwrist
    rwrist rhand rthumb
    rhand rfingers
  end

#!OML:ASF H:\Terrain\Walking\May29\JustinRory\rory.ASF
:FULLY-SPECIFIED
:DEGREES
97
root 16.6229 15.0044 7.19784 -9.49737 -1.66841 7.84982
lowerback 27.9333 -3.23278 -3.42115
upperback 11.3513 -5.03328 -0.577425
thorax -2.43823 -2.58457 2.76264
lowerneck -3.57045 -12.4405 -8.83075
upperneck 29.8581 -19.3698 9.33795
head 12.2745 -8.78387 2.51551
rclavicle 3.37934e-014 -2.50469e-014
rhumerus -24.994 -28.6983 -50.2299
rradius 93.8157
rwrist 21.4675
rhand -33.8809 42.2346
rfingers 7.12502
rthumb -7.06457 12.3725
lclavicle 3.37934e-014 -2.50469e-014
lhumerus -1.58571 -33.3551 69.9519
lradius 87.4741
lwrist 0.646744
lhand -31.4421 4.25982
lfingers 7.12502
lthumb -4.71001 34.1875
rfemur -64.6391 -7.29372 24.6994
rtibia 75.661
rfoot -4.53679 0.437952
rtoes 10.1674
lfemur -39.1177 17.8343 -7.58015
ltibia 81.5
lfoot -10.3662 -9.4138
ltoes -29.8212
98
root 16.5321 15.0335 7.37717 -9.95448 -0.94182 7.48279
lowerback 28.1432 -3.26995 -3.56678
upperback 11.4626 -5.09115 -0.145691
thorax -2.34651 -2.63301 3.33822
lowerneck -2.56892 -12.5158 -9.40497
upperneck 29.538 -19.5727 9.8749
head 12.1048 -8.9334 2.83655
rclavicle -2.8625e-014 1.27222e-014
rhumerus -26.3451 -28.6493 -49.6557
rradius 94.3009
rwrist 22.8919
rhand -35.6542 43.8804
rfingers 7.12502
rthumb -8.77611 14.0828
lclavicle -2.8625e-014 1.27222e-014
lhumerus -1.48055 -32.5435 68.826
lradius 88.3716
lwrist 0.48212
lhand -31.5106 3.75949
lfingers 7.12502
lthumb -4.77618 33.6857
rfemur -63.3738 -5.7927 22.4278
rtibia 71.7254
rfoot -1.63074 -1.34595
rtoes 15.7455
lfemur -39.6091 16.9762 -6.4531
ltibia 82.9541
lfoot -6.1283 -9.50701
ltoes -27.0307
99
root 16.4336 15.049 7.55728 -10.466 -0.142154 7.44292
lowerback 28.5557 -2.80104 -3.18287
upperback 11.8174 -4.39362 -0.219726
thorax -2.23023 -2.27565 2.85462
lowerneck -2.53092 -13.4314 -8.14028
upperneck 29.2947 -21.1409 10.3827
head 12.1133 -9.45788 2.59272
rclavicle -3.18055e-015 -3.18055e-015
rhumerus -29.3614 -30.7322 -48.4961
rradius 95.1837
rwrist 23.5055
rhand -36.3235 45.2644
rfingers 7.12502
rthumb -9.42197 15.495
lclavicle -3.18055e-015 -3.18055e-015
lhumerus 0.591885 -33.7031 66.1312
lradius 89.1208
lwrist 0.745059
lhand -31.9655 3.59217
lfingers 7.12502
lthumb -5.21539 33.508
rfemur -61.9103 -3.93435 19.5911
rtibia 68.1665
rfoot 0.804249 -3.47116
rtoes 17.4986
lfemur -40.2417 16.0235 -5.66587
ltibia 84.2705
lfoot -1.64237 -9.34854
ltoes -23.6392
100
root 16.3324 15.0721 7.73777 -11.0311 0.749279 6.98499
lowerback 28.8841 -2.99916 -3.42538
upperback 11.7415 -4.69445 0.0797368
thorax -2.39324 -2.43418 3.42828
lowerneck -1.31605 -13.3697 -8.35416
upperneck 29.2612 -21.1117 10.5224
head 11.9038 -9.51821 2.77656
rclavicle -4.41302e-014 3.81667e-014
rhumerus -30.738 -29.7941 -48.2766
rradius 95.8248
rwrist 22.4221
rhand -36.4321 44.7915
rfingers 7.12502
rthumb -9.52678 15.0269
lclavicle -4.41302e-014 3.81667e-014
lhumerus -0.117118 -32.4282 64.7962
lradius 90.0828
lwrist 0.861181
lhand -32.1865 3.25765
lfingers 7.12502
lthumb -5.42876 33.1681
rfemur -60.3267 -1.82469 17.0105
rtibia 65.0509
rfoot 2.96579 -5.652
rtoes 17.3091
lfemur -40.8427 14.9364 -4.44662
ltibia 85.3187
lfoot 1.12004 -8.9791
ltoes -22.4897
101
root 16.2369 15.0893 7.92564 -11.6452 1.73534 6.3899
lowerback 29.0001 -3.29894 -3.63436
upperback 11.8989 -5.10091 0.467506
thorax -2.17225 -2.6628 4.08539
lowerneck -0.741297 -13.2956 -8.49088
upperneck 29.3915 -20.9743 10.3224
head 11.817 -9.51384 2.79244
rclavicle 8.74653e-015 -7.15625e-015
rhumerus -31.0564 -28.9855 -48.271
rradius 95.8235
rwrist 20.5328
rhand -36.2522 45.3832
rfingers 7.12502
rthumb -9.35316 15.6107
lclavicle 8.74653e-015 -7.15625e-015
lhumerus -0.534979 -30.6256 63.357
lradius 90.8303
lwrist 0.74831
lhand -32.1342 3.15486
lfingers 7.12502
lthumb -5.37834 33.0666
rfemur -58.7612 0.280359 14.4665
rtibia 62.488
rfoot 4.88925 -7.86182
rtoes 20.6211
lfemur -41.2756 13.6841 -3.23218
ltibia 86.0357
lfoot 1.31668 -7.84648
ltoes -26.8075
102
root 16.1427 15.079 8.11808 -12.2047 2.81701 5.89288
lowerback 29.122 -3.13145 -2.97763
upperback 12.249 -4.69857 0.489639
thorax -1.92597 -2.44717 3.61437
lowerneck -0.764059 -14.0954 -7.41276
upperneck 29.5054 -22.2752 10.4963
head 11.9223 -9.96029 2.50299
rclavicle 1.23246e-014 -1.11319e-014
rhumerus -33.2983 -30.5074 -47.2203
rradius 96.1822
rwrist 19.7006
rhand -36.1858 46.8369
rfingers 7.12502
rthumb -9.28909 17.0616
lclavicle 1.23246e-014 -1.11319e-014
lhumerus 1.3802 -30.6739 60.6327
lradius 91.0551
lwrist 0.56565
lhand -32.2478 3.76587
lfingers 7.12502
lthumb -5.48794 33.6748
rfemur -57.3734 2.22942 11.9328
rtibia 60.5698
rfoot 6.74413 -9.96907
rtoes 21.9789
lfemur -41.8735 12.3159 -2.25102
ltibia 86.4315
lfoot -0.285984 -6.11071
ltoes -32.5097
103
root 16.0425 15.058 8.30654 -12.7089 3.90863 5.27747
lowerback 29.3312 -3.25241 -2.97031
upperback 12.1412 -4.82917 0.779427
thorax -2.10242 -2.51141 3.98473
lowerneck 0.0703565 -14.3042 -7.75158
upperneck 29.8558 -22.6903 10.7018
head 12.0341 -10.1868 2.62611
rclavicle 2.18663e-014 -1.98785e-014
rhumerus -35.0672 -30.2629 -46.513
rradius 96.9691
rwrist 20.4009
rhand -36.6694 46.6773
rfingers 7.12502
rthumb -9.75572 16.9232
lclavicle 2.18663e-014 -1.98785e-014
lhumerus 1.46133 -29.4078 58.8108
lradius 91.2159
lwrist 0.67682
lhand -32.2171 4.01618
lfingers 7.12502
lthumb -5.45837 33.9259
rfemur -56.171 4.07914 9.79722
rtibia 59.3176
rfoot 8.23189 -12.0435
rtoes 24.105
lfemur -42.696 10.9436 -1.15593
ltibia 86.3638
lfoot -0.709037 -5.15177
ltoes -30.2305
104
root 15.9398 15.0252 8.48978 -13.0036 5.09155 4.75095
lowerback 29.4787 -3.48681 -3.09827
upperback 11.9907 -5.14686 0.902417
thorax -2.28509 -2.66594 4.30197
lowerneck 0.608127 -14.454 -7.66585
upperneck 30.2629 -23.0203 10.7501
head 12.1399 -10.335 2.62509
rclavicle 1.09729e-013 -6.67916e-014
rhumerus -36.2997 -29.8949 -46.4462
rradius 97.4022
rwrist 21.1583
rhand -37.3114 46.5345
rfingers 7.12502
rthumb -10.375 16.8105
lclavicle 1.09729e-013 -6.67916e-014
lhumerus 1.43615 -27.7882 56.677
lradius 91.4067
lwrist 1.3666
lhand -32.1633 4.31097
lfingers 7.12502
lthumb -5.40637 34.222
rfemur -55.4606 5.70742 7.69767
rtibia 58.7113
rfoot 9.32857 -13.5641
rtoes 26.4945
lfemur -43.7649 9.48885 -0.264372
ltibia 85.764
lfoot -1.10374 -4.62489
ltoes -28.8375
105
root 15.832 14.942 8.67434 -13.0738 6.10157 3.38814
lowerback 29.4436 -3.79561 -2.74012
upperback 11.7072 -5.41253 1.34567
thorax -2.55081 -2.78546 4.67667
lowerneck 1.17969 -14.5946 -8.02588
upperneck 30.7204 -23.4085 11.0608
head 12.3735 -10.5297 2.76911
rclavicle 2.50469e-014 -2.94201e-014
rhumerus -37.311 -29.3104 -46.2286
rradius 97.2556
rwrist 21.3045
rhand -36.7346 45.2667
rfingers 7.12502
rthumb -9.81858 15.5156
lclavicle 2.50469e-014 -2.94201e-014
lhumerus 1.19854 -26.0106 54.7752
lradius 91.4026
lwrist 1.98379
lhand -32.5991 4.83097
lfingers 7.12502
lthumb -5.82718 34.7308
rfemur -55.4422 7.36955 6.5408
rtibia 58.6911
rfoot 10.2944 -14.3626
rtoes 28.335
lfemur -45.413 8.4712 1.63272
ltibia 84.825
lfoot -1.62792 -4.80001
ltoes -30.8005
106
root 15.7162 14.8167 8.87551 -13.2324 6.73871 1.39813
lowerback 29.4739 -4.04103 -1.98145
upperback 11.4 -5.48053 1.97879
thorax -2.90874 -2.79981 4.98537
lowerneck 1.58626 -14.7565 -8.53227
upperneck 31.3374 -23.8857 11.4509
head 12.7637 -10.7564 2.9309
rclavicle -1.20265e-013 8.94531e-014
rhumerus -38.5686 -28.7308 -45.8602
rradius 97.0957
rwrist 21.5878
rhand -34.7064 42.4255
rfingers 7.12502
rthumb -7.86138 12.5917
lclavicle -1.20265e-013 8.94531e-014
lhumerus 1.22447 -24.4476 52.6843
lradius 91.0112
lwrist 2.75964
lhand -33.0967 4.87282
lfingers 7.12502
lthumb -6.30758 34.7589
rfemur -55.5924 9.08465 6.50119
rtibia 59.1807
rfoot 11.0853 -14.408
rtoes 29.5385
lfemur -47.0789 7.97365 4.43274
ltibia 83.4167
lfoot -1.59591 -6.36043
ltoes -30.5184
107
root 15.5973 14.6992 9.08797 -13.644 7.62611 -0.093365
lowerback 29.5967 -4.28775 -1.88214
upperback 11.333 -5.73629 2.376
thorax -2.97593 -2.93221 5.45817
lowerneck 1.51496 -14.8629 -8.32254
upperneck 31.8231 -24.1968 11.5156
head 13.0188 -10.8479 2.86577
rclavicle 3.47873e-014 -2.54444e-014
rhumerus -39.4064 -28.1718 -46.141
rradius 97.0018
rwrist 22.2349
rhand -33.2744 41.1455
rfingers 7.12502
rthumb -6.47917 11.2646
lclavicle 3.47873e-014 -2.54444e-014
lhumerus 1.61702 -22.5595 50.0873
lradius 90.3507
lwrist 3.62992
lhand -32.9294 4.97479
lfingers 7.12502
lthumb -6.14603 34.8656
rfemur -55.2926 10.2101 6.41993
rtibia 60.0357
rfoot 11.8795 -13.2987
rtoes 29.6108
lfemur -48.2554 7.05009 6.50239
ltibia 81.2534
lfoot -1.02519 -8.58694
ltoes -28.9272
